<svg width="48" height="49" viewBox="0 0 48 49" fill="none" xmlns="http://www.w3.org/2000/svg">
<g clip-path="url(#clip0_1022_25297)">
<path d="M44.4469 0.280029H3.54375C1.58437 0.280029 0 1.8269 0 3.7394V44.8113C0 46.7238 1.58437 48.28 3.54375 48.28H44.4469C46.4062 48.28 48 46.7238 48 44.8207V3.7394C48 1.8269 46.4062 0.280029 44.4469 0.280029ZM14.2406 41.1832H7.11563V18.2707H14.2406V41.1832ZM10.6781 15.1488C8.39062 15.1488 6.54375 13.3019 6.54375 11.0238C6.54375 8.74565 8.39062 6.89878 10.6781 6.89878C12.9563 6.89878 14.8031 8.74565 14.8031 11.0238C14.8031 13.2925 12.9563 15.1488 10.6781 15.1488ZM40.9031 41.1832H33.7875V30.0457C33.7875 27.3925 33.7406 23.9707 30.0844 23.9707C26.3812 23.9707 25.8187 26.8675 25.8187 29.8582V41.1832H18.7125V18.2707H25.5375V21.4019H25.6312C26.5781 19.6019 28.9031 17.6988 32.3625 17.6988C39.5719 17.6988 40.9031 22.4425 40.9031 28.6113V41.1832Z" fill="white"/>
</g>
<defs>
<clipPath id="clip0_1022_25297">
<rect width="48" height="48" fill="white" transform="translate(0 0.280029)"/>
</clipPath>
</defs>
</svg>
