<svg width="48" height="49" viewBox="0 0 48 49" fill="none" xmlns="http://www.w3.org/2000/svg">
<path d="M0 48.28L3.374 35.954C1.292 32.346 0.198 28.256 0.2 24.062C0.206 10.95 10.876 0.280029 23.986 0.280029C30.348 0.282029 36.32 2.76003 40.812 7.25603C45.302 11.752 47.774 17.728 47.772 24.084C47.766 37.198 37.096 47.868 23.986 47.868C20.006 47.866 16.084 46.868 12.61 44.972L0 48.28ZM13.194 40.666C16.546 42.656 19.746 43.848 23.978 43.85C34.874 43.85 43.75 34.982 43.756 24.08C43.76 13.156 34.926 4.30003 23.994 4.29603C13.09 4.29603 4.22 13.164 4.216 24.064C4.214 28.514 5.518 31.846 7.708 35.332L5.71 42.628L13.194 40.666ZM35.968 29.738C35.82 29.49 35.424 29.342 34.828 29.044C34.234 28.746 31.312 27.308 30.766 27.11C30.222 26.912 29.826 26.812 29.428 27.408C29.032 28.002 27.892 29.342 27.546 29.738C27.2 30.134 26.852 30.184 26.258 29.886C25.664 29.588 23.748 28.962 21.478 26.936C19.712 25.36 18.518 23.414 18.172 22.818C17.826 22.224 18.136 21.902 18.432 21.606C18.7 21.34 19.026 20.912 19.324 20.564C19.626 20.22 19.724 19.972 19.924 19.574C20.122 19.178 20.024 18.83 19.874 18.532C19.724 18.236 18.536 15.31 18.042 14.12C17.558 12.962 17.068 13.118 16.704 13.1L15.564 13.08C15.168 13.08 14.524 13.228 13.98 13.824C13.436 14.42 11.9 15.856 11.9 18.782C11.9 21.708 14.03 24.534 14.326 24.93C14.624 25.326 18.516 31.33 24.478 33.904C25.896 34.516 27.004 34.882 27.866 35.156C29.29 35.608 30.586 35.544 31.61 35.392C32.752 35.222 35.126 33.954 35.622 32.566C36.118 31.176 36.118 29.986 35.968 29.738Z" fill="white"/>
</svg>
