<svg width="188" height="187" viewBox="0 0 188 187" fill="none" xmlns="http://www.w3.org/2000/svg">
<g clip-path="url(#clip0_1026_25465)">
<path fill-rule="evenodd" clip-rule="evenodd" d="M88.3283 8.50931C91.2423 6.8745 94.8296 6.8745 97.7392 8.50931C112.137 16.5881 155.463 40.9057 169.864 48.9846C172.778 50.615 174.572 53.6354 174.572 56.905C174.572 73.0622 174.572 121.694 174.572 137.852C174.572 141.121 172.778 144.141 169.864 145.776C155.467 153.855 112.141 178.172 97.7392 186.251C94.8257 187.886 91.2379 187.886 88.3283 186.251C73.9308 178.172 30.6052 153.855 16.2033 145.776C13.2937 144.141 11.5 141.125 11.5 137.856C11.5 121.698 11.5 73.0666 11.5 56.9089C11.5 53.6398 13.2937 50.6194 16.2077 48.9846C30.6008 40.9057 73.9352 16.5881 88.3283 8.50931Z" fill="#283593"/>
<path fill-rule="evenodd" clip-rule="evenodd" d="M12.8044 142.017C11.6632 140.489 11.5 139.039 11.5 137.087C11.5 121.023 11.5 72.671 11.5 56.6032C11.5 53.3511 13.2893 50.3482 16.1946 48.7265C30.5406 40.6948 73.7204 16.5185 88.0664 8.48247C90.9717 6.8564 94.9069 6.8909 97.8121 8.51696C112.159 16.5482 155.192 40.5189 169.538 48.5501C170.697 49.2026 171.581 49.9877 172.371 51.0215L12.8044 142.017Z" fill="#5C6BC0"/>
<path fill-rule="evenodd" clip-rule="evenodd" d="M93.036 37.3154C126.196 37.3154 153.115 64.2288 153.115 97.3807C153.115 130.533 126.196 157.446 93.036 157.446C59.8768 157.446 32.9571 130.533 32.9571 97.3807C32.9571 64.2288 59.8768 37.3154 93.036 37.3154ZM93.036 67.3478C109.613 67.3478 123.076 80.8028 123.076 97.3807C123.076 113.955 109.613 127.414 93.036 127.414C76.4586 127.414 62.9963 113.955 62.9963 97.3807C62.9963 80.8028 76.4542 67.3478 93.036 67.3478Z" fill="white"/>
<path fill-rule="evenodd" clip-rule="evenodd" d="M172.362 51.063C174.576 53.1355 174.534 56.2589 174.534 58.7172C174.534 74.9992 174.396 121.31 174.572 137.592C174.589 139.291 174.027 141.08 173.186 142.427L91.2895 97.3779L172.362 51.063Z" fill="#3949AB"/>
<path fill-rule="evenodd" clip-rule="evenodd" d="M135.95 80.217H140.241V114.54H135.95V80.217ZM148.824 80.217H153.115V114.54H148.824V80.217Z" fill="white"/>
<path fill-rule="evenodd" clip-rule="evenodd" d="M127.367 101.67H161.698V105.96H127.367V101.67ZM127.367 88.7986H161.698V93.0889H127.367V88.7986Z" fill="white"/>
</g>
<defs>
<clipPath id="clip0_1026_25465">
<rect width="186.558" height="186.558" fill="white" transform="translate(0.5 0.280029)"/>
</clipPath>
</defs>
</svg>
