<svg width="48" height="49" viewBox="0 0 48 49" fill="none" xmlns="http://www.w3.org/2000/svg">
<g clip-path="url(#clip0_1022_25303)">
<path fill-rule="evenodd" clip-rule="evenodd" d="M24.0199 0.280029C10.7375 0.280029 0 11.0967 0 24.4784C0 35.175 6.87988 44.2296 16.4241 47.4343C17.6174 47.6752 18.0545 46.9136 18.0545 46.2729C18.0545 45.7119 18.0151 43.789 18.0151 41.7855C11.3334 43.2281 9.94198 38.9009 9.94198 38.9009C8.86818 36.0964 7.27715 35.3756 7.27715 35.3756C5.09022 33.8933 7.43645 33.8933 7.43645 33.8933C9.86233 34.0536 11.1353 36.3772 11.1353 36.3772C13.2824 40.0627 16.7422 39.0214 18.1341 38.3802C18.3328 36.8177 18.9695 35.736 19.6455 35.1352C14.3163 34.5742 8.70937 32.491 8.70937 23.1961C8.70937 20.5519 9.66321 18.3886 11.1746 16.7061C10.9361 16.1053 10.1008 13.6209 11.4135 10.2958C11.4135 10.2958 13.4417 9.65463 18.0146 12.7797C19.9725 12.25 21.9916 11.9805 24.0199 11.9782C26.048 11.9782 28.1154 12.259 30.0246 12.7797C34.5981 9.65463 36.6262 10.2958 36.6262 10.2958C37.9389 13.6209 37.1031 16.1053 36.8646 16.7061C38.4158 18.3886 39.3303 20.5519 39.3303 23.1961C39.3303 32.491 33.7234 34.5339 28.3544 35.1352C29.2296 35.8963 29.9848 37.3384 29.9848 39.6222C29.9848 42.8672 29.9454 45.4715 29.9454 46.2724C29.9454 46.9136 30.383 47.6752 31.5758 47.4347C41.12 44.2291 47.9999 35.175 47.9999 24.4784C48.0392 11.0967 37.2624 0.280029 24.0199 0.280029Z" fill="white"/>
</g>
<defs>
<clipPath id="clip0_1022_25303">
<rect width="48" height="48" fill="white" transform="translate(0 0.280029)"/>
</clipPath>
</defs>
</svg>
