<svg width="188" height="187" viewBox="0 0 188 187" fill="none" xmlns="http://www.w3.org/2000/svg">
<mask id="mask0_1026_25663" style="mask-type:luminance" maskUnits="userSpaceOnUse" x="6" y="5" width="176" height="177">
<path d="M6.49109 5.9928H181.669V181.171H6.49109V5.9928Z" fill="white"/>
</mask>
<g mask="url(#mask0_1026_25663)">
<path d="M6.49109 5.9928H181.669V181.171H6.49109V5.9928Z" fill="#FFD600"/>
</g>
<path d="M121.029 137.117C124.396 142.587 128.055 147.827 135.806 147.827C142.318 147.827 145.733 144.592 145.733 140.115C145.733 134.757 142.2 132.855 135.038 129.736L131.111 128.061C119.778 123.254 112.24 117.23 112.24 104.505C112.24 92.7777 121.218 83.8535 135.247 83.8535C145.237 83.8535 152.414 87.3131 157.592 96.3738L145.359 104.194C142.668 99.3859 139.758 97.4931 135.247 97.4931C130.644 97.4931 127.729 100.398 127.729 104.194C127.729 108.884 130.648 110.782 137.388 113.687L141.315 115.361C154.672 121.049 162.205 126.859 162.205 139.92C162.205 153.993 151.091 161.705 136.171 161.705C121.578 161.705 113.291 154.382 108.678 145.317L121.029 137.117ZM64.6502 137.516C67.1124 141.925 70.8547 145.317 76.2362 145.317C81.3846 145.317 84.3481 143.282 84.3481 135.375V83.8486H100.566V137.867C100.566 154.25 91.0632 161.705 77.1851 161.705C64.6454 161.705 55.5944 153.209 51.906 145.317L64.6502 137.516Z" fill="#000001"/>
</svg>
